<svg width="16" height="16" viewBox="0 0 16 16" fill="none" xmlns="http://www.w3.org/2000/svg">
<path d="M0.435335 15.5646C0.725547 15.8549 1.10581 16 1.48615 16C1.86648 16 2.24682 15.8549 2.53696 15.5646L8 10.1016L13.4631 15.5646C13.7532 15.8549 14.1336 16 14.5139 16C14.8943 16 15.2745 15.8549 15.5647 15.5646C16.1451 14.9844 16.1451 14.0434 15.5647 13.4631L10.1016 8.00003L15.5646 2.5369C16.1449 1.95654 16.1449 1.01556 15.5646 0.435268C14.9844 -0.145089 14.0434 -0.145089 13.463 0.435268L7.99993 5.89839L2.53689 0.435268C1.95654 -0.145089 1.01555 -0.145089 0.435266 0.435268C-0.145089 1.01562 -0.145089 1.95654 0.435266 2.5369L5.89837 8.00003L0.435266 13.4631C-0.145019 14.0434 -0.14502 14.9844 0.435335 15.5646Z" fill="#A8B1B8"/>
</svg>
